<svg id="svg" version="1.1" xmlns="http://www.w3.org/2000/svg" xmlns:xlink="http://www.w3.org/1999/xlink" width="400" height="400" viewBox="0, 0, 400,400"><g id="svgg"><path id="path0" d="M0.000 200.000 L 0.000 400.000 200.000 400.000 L 400.000 400.000 400.000 200.000 L 400.000 0.000 200.000 0.000 L 0.000 0.000 0.000 200.000 M234.603 77.584 C 256.885 82.098,273.866 98.807,278.129 120.415 C 279.461 127.165,294.957 131.539,305.614 128.172 C 310.166 126.734,310.357 126.721,312.038 127.746 C 318.065 131.421,313.420 139.896,302.505 145.142 C 290.956 150.691,281.219 151.450,272.538 147.479 C 268.159 145.476,264.559 146.810,264.951 150.290 C 265.207 152.561,266.328 153.672,269.167 154.468 C 272.025 155.270,272.063 154.962,268.582 159.180 C 266.987 161.113,265.188 163.380,264.584 164.216 L 263.488 165.737 266.098 168.123 C 271.165 172.754,275.077 180.474,278.031 191.675 L 279.865 198.633 279.858 208.203 C 279.839 230.414,275.089 243.367,260.701 260.439 C 235.528 290.310,184.081 293.746,153.125 267.625 C 151.943 266.628,150.139 265.141,149.115 264.320 C 146.802 262.467,146.111 261.163,145.992 258.429 C 145.857 255.336,145.762 255.366,153.345 256.096 C 168.502 257.557,179.399 255.689,191.406 249.571 C 198.572 245.920,209.272 236.883,211.365 232.714 C 211.823 231.801,212.519 230.703,212.912 230.272 C 213.305 229.842,214.084 228.436,214.643 227.147 C 215.202 225.859,216.077 224.013,216.588 223.044 C 219.247 218.003,220.700 206.114,219.538 198.911 C 217.016 183.274,208.234 170.793,192.422 160.372 C 181.167 152.954,179.036 150.132,176.155 138.827 C 173.050 126.642,175.604 109.869,181.863 101.342 C 182.346 100.684,183.030 99.454,183.383 98.608 C 183.736 97.762,184.500 96.615,185.079 96.059 C 185.659 95.503,187.275 93.879,188.672 92.451 C 192.563 88.472,192.920 88.172,196.609 85.796 C 209.107 77.744,221.826 74.995,234.603 77.584 M241.308 118.917 C 235.816 120.877,232.889 127.333,235.186 132.422 C 237.688 137.966,243.260 140.039,248.797 137.487 C 251.456 136.262,251.855 135.816,253.772 131.936 C 257.529 124.329,249.536 115.980,241.308 118.917 M108.750 123.361 C 109.727 123.800,111.277 125.233,113.070 127.355 C 126.771 143.568,144.186 153.491,167.578 158.413 C 205.377 166.368,223.329 210.850,198.220 234.338 C 177.621 253.607,137.915 250.311,123.362 228.125 C 118.001 219.953,115.534 211.505,117.477 207.977 C 118.295 206.492,125.908 208.345,135.431 212.348 C 147.287 217.331,152.513 217.174,153.027 211.819 C 153.322 208.749,152.578 208.207,145.117 206.054 C 132.333 202.366,117.004 194.431,112.552 189.197 C 109.357 185.441,107.031 180.853,107.031 178.306 L 107.031 176.953 109.557 176.953 C 111.774 176.953,112.239 177.089,113.365 178.067 C 118.940 182.909,129.160 185.966,131.181 183.397 C 132.117 182.207,132.285 180.281,131.587 178.748 C 131.088 177.654,130.134 177.138,125.373 175.388 C 112.468 170.644,103.973 161.848,101.323 150.486 C 99.379 142.152,99.461 128.516,101.471 125.824 C 103.401 123.240,106.298 122.260,108.750 123.361 M271.179 266.423 C 276.824 267.991,278.834 275.897,274.684 280.209 C 270.199 284.869,264.010 284.442,260.254 279.212 C 255.445 272.518,262.670 264.060,271.179 266.423 M264.852 269.434 C 259.022 272.363,261.565 281.256,268.080 280.725 C 272.145 280.393,273.960 278.341,273.734 274.329 C 273.476 269.744,269.069 267.315,264.852 269.434 M270.480 271.317 C 271.219 272.056,271.236 272.503,270.618 274.814 C 270.245 276.211,270.245 276.755,270.618 277.353 C 271.233 278.338,271.227 279.299,270.605 279.291 C 269.826 279.281,269.294 278.798,268.624 277.489 C 267.740 275.764,266.797 275.477,266.797 276.933 C 266.797 278.570,266.423 279.297,265.583 279.297 C 264.372 279.297,264.305 272.085,265.508 271.191 C 266.457 270.486,269.732 270.569,270.480 271.317 M266.775 272.306 C 266.554 272.719,266.512 273.297,266.683 273.590 C 267.126 274.354,268.750 273.666,268.750 272.714 C 268.750 271.654,267.286 271.351,266.775 272.306 " stroke="none" fill="#403b3e" fill-rule="evenodd"></path><path id="path1" d="M218.555 77.181 C 210.823 78.376,203.923 81.084,196.609 85.796 C 192.920 88.172,192.563 88.472,188.672 92.451 C 187.275 93.879,185.659 95.503,185.079 96.059 C 184.500 96.615,183.736 97.762,183.383 98.608 C 183.030 99.454,182.346 100.684,181.863 101.342 C 175.604 109.869,173.050 126.642,176.155 138.827 C 179.036 150.132,181.167 152.954,192.422 160.372 C 208.234 170.793,217.016 183.274,219.538 198.911 C 220.700 206.114,219.247 218.003,216.588 223.044 C 216.077 224.013,215.202 225.859,214.643 227.147 C 214.084 228.436,213.305 229.842,212.912 230.272 C 212.519 230.703,211.823 231.801,211.365 232.714 C 209.272 236.883,198.572 245.920,191.406 249.571 C 179.399 255.689,168.502 257.557,153.345 256.096 C 145.762 255.366,145.857 255.336,145.992 258.429 C 146.111 261.163,146.802 262.467,149.115 264.320 C 150.139 265.141,151.943 266.628,153.125 267.625 C 184.081 293.746,235.528 290.310,260.701 260.439 C 275.089 243.367,279.839 230.414,279.858 208.203 L 279.865 198.633 278.031 191.675 C 275.077 180.474,271.165 172.754,266.098 168.123 L 263.488 165.737 264.584 164.216 C 265.188 163.380,266.987 161.113,268.582 159.180 C 272.063 154.962,272.025 155.270,269.167 154.468 C 266.328 153.672,265.207 152.561,264.951 150.290 C 264.559 146.810,268.159 145.476,272.538 147.479 C 281.219 151.450,290.956 150.691,302.505 145.142 C 313.420 139.896,318.065 131.421,312.038 127.746 C 310.357 126.721,310.166 126.734,305.614 128.172 C 294.957 131.539,279.461 127.165,278.129 120.415 C 272.704 92.917,245.323 73.046,218.555 77.181 M249.023 119.278 C 255.218 122.169,256.341 127.905,252.112 135.046 C 249.614 139.264,241.397 139.721,237.615 135.853 C 229.561 127.616,238.637 114.431,249.023 119.278 M103.947 123.763 C 100.315 125.975,99.518 129.264,100.035 139.910 C 100.935 158.463,108.626 169.232,125.373 175.388 C 130.134 177.138,131.088 177.654,131.587 178.748 C 132.285 180.281,132.117 182.207,131.181 183.397 C 129.160 185.966,118.940 182.909,113.365 178.067 C 112.239 177.089,111.774 176.953,109.557 176.953 L 107.031 176.953 107.031 178.306 C 107.031 180.853,109.357 185.441,112.552 189.197 C 117.004 194.431,132.333 202.366,145.117 206.054 C 152.578 208.207,153.322 208.749,153.027 211.819 C 152.513 217.174,147.287 217.331,135.431 212.348 C 125.908 208.345,118.295 206.492,117.477 207.977 C 115.534 211.505,118.001 219.953,123.362 228.125 C 137.915 250.311,177.621 253.607,198.220 234.338 C 223.329 210.850,205.377 166.368,167.578 158.413 C 144.186 153.491,126.771 143.568,113.070 127.355 C 109.067 122.618,107.100 121.843,103.947 123.763 M264.793 266.760 C 257.193 269.732,256.494 277.912,263.472 282.226 C 269.049 285.674,276.953 281.238,276.953 274.661 C 276.953 268.366,270.840 264.394,264.793 266.760 M270.625 269.299 C 273.640 270.868,274.860 275.182,273.087 278.006 C 270.713 281.787,264.797 281.801,262.498 278.031 C 259.379 272.915,265.315 266.536,270.625 269.299 M265.508 271.191 C 264.305 272.085,264.372 279.297,265.583 279.297 C 266.423 279.297,266.797 278.570,266.797 276.933 C 266.797 275.477,267.740 275.764,268.624 277.489 C 269.294 278.798,269.826 279.281,270.605 279.291 C 271.227 279.299,271.233 278.338,270.618 277.353 C 270.245 276.755,270.245 276.211,270.618 274.814 C 271.236 272.503,271.219 272.056,270.480 271.317 C 269.732 270.569,266.457 270.486,265.508 271.191 M268.750 272.714 C 268.750 273.666,267.126 274.354,266.683 273.590 C 266.512 273.297,266.554 272.719,266.775 272.306 C 267.286 271.351,268.750 271.654,268.750 272.714 " stroke="none" fill="#f4f6f5" fill-rule="evenodd"></path></g></svg>